<?xml version="1.0" encoding="UTF-8" standalone="no"?>
<!-- Generator: Adobe Illustrator 18.1.1, SVG Export Plug-In . SVG Version: 6.00 Build 0)  -->

<svg
   xmlns:dc="http://purl.org/dc/elements/1.1/"
   xmlns:cc="http://creativecommons.org/ns#"
   xmlns:rdf="http://www.w3.org/1999/02/22-rdf-syntax-ns#"
   xmlns:svg="http://www.w3.org/2000/svg"
   xmlns="http://www.w3.org/2000/svg"
   xmlns:sodipodi="http://sodipodi.sourceforge.net/DTD/sodipodi-0.dtd"
   xmlns:inkscape="http://www.inkscape.org/namespaces/inkscape"
   version="1.1"
   id="Capa_1"
   x="0px"
   y="0px"
   viewBox="0 0 76 76"
   style="enable-background:new 0 0 76 76;"
   xml:space="preserve"
   sodipodi:docname="more-details-circular-button.svg"
   inkscape:version="0.92.2 (5c3e80d, 2017-08-06)"><metadata
     id="metadata39"><rdf:RDF><cc:Work
         rdf:about=""><dc:format>image/svg+xml</dc:format><dc:type
           rdf:resource="http://purl.org/dc/dcmitype/StillImage" /><dc:title></dc:title></cc:Work></rdf:RDF></metadata><defs
     id="defs37" /><sodipodi:namedview
     pagecolor="#ffffff"
     bordercolor="#666666"
     borderopacity="1"
     objecttolerance="10"
     gridtolerance="10"
     guidetolerance="10"
     inkscape:pageopacity="0"
     inkscape:pageshadow="2"
     inkscape:window-width="1920"
     inkscape:window-height="1025"
     id="namedview35"
     showgrid="false"
     inkscape:zoom="4.3915053"
     inkscape:cx="37.582774"
     inkscape:cy="37.511338"
     inkscape:window-x="0"
     inkscape:window-y="27"
     inkscape:window-maximized="1"
     inkscape:current-layer="Capa_1" /><g
     id="_x37_7_Essential_Icons_38_"
     style="fill:#ffffff"
     inkscape:export-filename="/home/schinaider/Documentos/DoCarie/src/assets/img/about.png"
     inkscape:export-xdpi="90"
     inkscape:export-ydpi="90"><path
       id="More_Details__x28_3_x29_"
       d="M38,0C17,0,0,17,0,38s17,38,38,38s38-17,38-38S59,0,38,0z M38,72C19.2,72,4,56.8,4,38   S19.2,4,38,4s34,15.2,34,34S56.8,72,38,72z M38,31c-3.9,0-7,3.1-7,7s3.1,7,7,7s7-3.1,7-7S41.9,31,38,31z M38,41c-1.7,0-3-1.4-3-3   c0-1.7,1.3-3,3-3s3,1.3,3,3C41,39.6,39.7,41,38,41z M58,31c-3.9,0-7,3.1-7,7s3.1,7,7,7s7-3.1,7-7S61.9,31,58,31z M58,41   c-1.7,0-3-1.4-3-3c0-1.7,1.3-3,3-3s3,1.3,3,3C61,39.6,59.7,41,58,41z M18,31c-3.9,0-7,3.1-7,7s3.1,7,7,7s7-3.1,7-7S21.9,31,18,31z    M18,41c-1.7,0-3-1.4-3-3c0-1.7,1.3-3,3-3s3,1.3,3,3C21,39.6,19.7,41,18,41z"
       style="fill:#ffffff" /></g><g
     id="g4" /><g
     id="g6" /><g
     id="g8" /><g
     id="g10" /><g
     id="g12" /><g
     id="g14" /><g
     id="g16" /><g
     id="g18" /><g
     id="g20" /><g
     id="g22" /><g
     id="g24" /><g
     id="g26" /><g
     id="g28" /><g
     id="g30" /><g
     id="g32" /></svg>