<?xml version="1.0" encoding="UTF-8" standalone="no"?>
<!-- Generator: Adobe Illustrator 18.1.1, SVG Export Plug-In . SVG Version: 6.00 Build 0)  -->

<svg
   xmlns:dc="http://purl.org/dc/elements/1.1/"
   xmlns:cc="http://creativecommons.org/ns#"
   xmlns:rdf="http://www.w3.org/1999/02/22-rdf-syntax-ns#"
   xmlns:svg="http://www.w3.org/2000/svg"
   xmlns="http://www.w3.org/2000/svg"
   xmlns:sodipodi="http://sodipodi.sourceforge.net/DTD/sodipodi-0.dtd"
   xmlns:inkscape="http://www.inkscape.org/namespaces/inkscape"
   version="1.1"
   id="Capa_1"
   x="0px"
   y="0px"
   viewBox="0 0 76 76"
   style="enable-background:new 0 0 76 76;"
   xml:space="preserve"
   sodipodi:docname="more-details-circular-button.svg"
   inkscape:version="0.92.2 (5c3e80d, 2017-08-06)"><metadata
     id="metadata39"><rdf:RDF><cc:Work
         rdf:about=""><dc:format>image/svg+xml</dc:format><dc:type
           rdf:resource="http://purl.org/dc/dcmitype/StillImage" /><dc:title /></cc:Work></rdf:RDF></metadata><defs
     id="defs37" /><sodipodi:namedview
     pagecolor="#ffffff"
     bordercolor="#666666"
     borderopacity="1"
     objecttolerance="10"
     gridtolerance="10"
     guidetolerance="10"
     inkscape:pageopacity="0"
     inkscape:pageshadow="2"
     inkscape:window-width="1920"
     inkscape:window-height="1025"
     id="namedview35"
     showgrid="false"
     inkscape:zoom="8.7830106"
     inkscape:cx="10.849093"
     inkscape:cy="46.312872"
     inkscape:window-x="0"
     inkscape:window-y="27"
     inkscape:window-maximized="1"
     inkscape:current-layer="Capa_1" /><rect
     style="opacity:1;fill:#483737;fill-opacity:1;stroke:none;stroke-linejoin:round"
     id="rect835"
     width="86.075272"
     height="86.189125"
     x="-4.3265347"
     y="-6.8872962" /><g
     id="g4" /><g
     id="g6" /><g
     id="g8" /><g
     id="g10" /><g
     id="g12" /><g
     id="g14" /><g
     id="g16" /><g
     id="g18" /><g
     id="g20" /><g
     id="g22" /><g
     id="g24" /><g
     id="g26" /><g
     id="g28" /><g
     id="g30" /><g
     id="g32" /><path
     style="opacity:1;fill:#ffffff;fill-opacity:1;stroke:none;stroke-width:1.03115261;stroke-linejoin:round"
     d="M 38,0.31445316 A 37.686394,37.686394 0 0 0 0.31445305,38 37.686394,37.686394 0 0 0 38,75.685547 37.686394,37.686394 0 0 0 75.685547,38 37.686394,37.686394 0 0 0 38,0.31445316 Z M 24.792969,33.275391 A 4.7250314,4.7250314 0 0 1 29.517578,38 4.7250314,4.7250314 0 0 1 24.792969,42.724609 4.7250314,4.7250314 0 0 1 20.068359,38 a 4.7250314,4.7250314 0 0 1 4.72461,-4.724609 z m 13.207031,0 A 4.7250314,4.7250314 0 0 1 42.724609,38 4.7250314,4.7250314 0 0 1 38,42.724609 4.7250314,4.7250314 0 0 1 33.275391,38 4.7250314,4.7250314 0 0 1 38,33.275391 Z m 13.207031,0 A 4.7250314,4.7250314 0 0 1 55.931641,38 4.7250314,4.7250314 0 0 1 51.207031,42.724609 4.7250314,4.7250314 0 0 1 46.482422,38 4.7250314,4.7250314 0 0 1 51.207031,33.275391 Z"
     id="path831"
     inkscape:connector-curvature="0" /><g
     id="g874" /></svg>